<?xml version="1.0" encoding="UTF-8"?>
<svg xmlns="http://www.w3.org/2000/svg" version="1.1" width="100" height="100" viewBox="0 0 100 100"><rect x="0" y="0" width="100" height="100" fill="#ffffff"/><g transform="scale(1.639)"><g transform="translate(0,0)"><path fill-rule="evenodd" d="M12 0L12 1L15 1L15 3L16 3L16 0ZM19 0L19 1L18 1L18 2L17 2L17 5L18 5L18 8L17 8L17 9L18 9L18 11L17 11L17 10L15 10L15 11L14 11L14 12L13 12L13 9L14 9L14 8L12 8L12 12L11 12L11 14L10 14L10 12L9 12L9 14L5 14L5 15L7 15L7 16L5 16L5 17L4 17L4 16L3 16L3 15L4 15L4 14L3 14L3 13L1 13L1 12L2 12L2 11L3 11L3 12L4 12L4 13L7 13L7 12L6 12L6 11L8 11L8 10L6 10L6 9L9 9L9 8L10 8L10 10L9 10L9 11L11 11L11 6L12 6L12 7L13 7L13 6L12 6L12 5L14 5L14 7L15 7L15 8L16 8L16 7L17 7L17 6L16 6L16 5L14 5L14 2L13 2L13 4L11 4L11 6L10 6L10 5L8 5L8 7L9 7L9 8L6 8L6 9L5 9L5 8L0 8L0 10L1 10L1 11L0 11L0 13L1 13L1 14L0 14L0 16L1 16L1 17L0 17L0 19L2 19L2 20L0 20L0 25L1 25L1 26L2 26L2 27L3 27L3 28L4 28L4 29L3 29L3 30L4 30L4 32L3 32L3 31L1 31L1 33L0 33L0 36L2 36L2 39L0 39L0 40L2 40L2 42L1 42L1 43L0 43L0 45L1 45L1 46L2 46L2 47L1 47L1 49L0 49L0 50L1 50L1 49L2 49L2 47L3 47L3 46L2 46L2 42L3 42L3 44L4 44L4 42L5 42L5 38L6 38L6 39L7 39L7 38L8 38L8 37L7 37L7 36L6 36L6 37L5 37L5 35L8 35L8 36L9 36L9 37L10 37L10 35L11 35L11 36L12 36L12 35L14 35L14 36L13 36L13 37L11 37L11 39L9 39L9 40L8 40L8 42L6 42L6 43L5 43L5 45L4 45L4 47L7 47L7 48L6 48L6 49L5 49L5 48L3 48L3 49L4 49L4 50L2 50L2 51L0 51L0 53L4 53L4 52L5 52L5 51L8 51L8 52L9 52L9 53L8 53L8 55L9 55L9 53L10 53L10 51L11 51L11 50L10 50L10 49L12 49L12 48L14 48L14 46L12 46L12 45L13 45L13 44L14 44L14 45L16 45L16 44L17 44L17 45L18 45L18 46L17 46L17 47L16 47L16 48L15 48L15 49L16 49L16 48L17 48L17 49L18 49L18 50L17 50L17 51L16 51L16 50L14 50L14 51L13 51L13 50L12 50L12 51L13 51L13 52L14 52L14 53L12 53L12 52L11 52L11 55L12 55L12 54L14 54L14 53L15 53L15 52L16 52L16 53L17 53L17 54L18 54L18 53L21 53L21 51L20 51L20 50L19 50L19 49L22 49L22 51L23 51L23 53L22 53L22 54L21 54L21 55L20 55L20 54L19 54L19 55L17 55L17 58L16 58L16 59L15 59L15 57L16 57L16 56L15 56L15 55L13 55L13 56L12 56L12 58L11 58L11 59L14 59L14 60L15 60L15 61L22 61L22 60L19 60L19 59L17 59L17 58L18 58L18 57L19 57L19 58L20 58L20 57L19 57L19 55L20 55L20 56L21 56L21 55L22 55L22 56L23 56L23 58L22 58L22 57L21 57L21 59L23 59L23 60L24 60L24 61L26 61L26 60L29 60L29 59L31 59L31 58L32 58L32 59L33 59L33 61L34 61L34 60L35 60L35 61L38 61L38 60L39 60L39 61L40 61L40 60L41 60L41 61L44 61L44 60L47 60L47 61L49 61L49 60L50 60L50 59L52 59L52 58L53 58L53 57L56 57L56 58L55 58L55 59L53 59L53 60L56 60L56 61L58 61L58 60L56 60L56 58L57 58L57 55L58 55L58 53L59 53L59 55L60 55L60 56L61 56L61 52L60 52L60 53L59 53L59 52L58 52L58 53L57 53L57 51L56 51L56 49L55 49L55 50L54 50L54 47L58 47L58 46L59 46L59 47L61 47L61 38L59 38L59 40L58 40L58 42L59 42L59 44L58 44L58 46L54 46L54 45L57 45L57 42L56 42L56 41L57 41L57 39L58 39L58 38L56 38L56 37L57 37L57 35L58 35L58 34L59 34L59 35L61 35L61 34L59 34L59 32L61 32L61 30L60 30L60 29L61 29L61 26L59 26L59 24L61 24L61 20L60 20L60 19L61 19L61 18L59 18L59 17L56 17L56 16L57 16L57 15L59 15L59 16L60 16L60 17L61 17L61 13L60 13L60 14L59 14L59 12L57 12L57 13L56 13L56 12L55 12L55 11L57 11L57 9L58 9L58 11L60 11L60 12L61 12L61 10L60 10L60 8L59 8L59 9L58 9L58 8L57 8L57 9L56 9L56 8L55 8L55 9L54 9L54 8L53 8L53 6L52 6L52 7L51 7L51 5L52 5L52 4L53 4L53 0L51 0L51 2L50 2L50 3L49 3L49 1L50 1L50 0L49 0L49 1L48 1L48 2L47 2L47 1L46 1L46 0L41 0L41 1L39 1L39 3L38 3L38 2L37 2L37 3L36 3L36 1L34 1L34 0L33 0L33 1L34 1L34 2L35 2L35 3L31 3L31 2L32 2L32 0L31 0L31 2L30 2L30 0L29 0L29 1L28 1L28 2L29 2L29 3L27 3L27 2L26 2L26 1L27 1L27 0L23 0L23 1L22 1L22 0L21 0L21 1L20 1L20 0ZM37 0L37 1L38 1L38 0ZM8 1L8 2L10 2L10 1ZM19 1L19 3L20 3L20 5L21 5L21 7L22 7L22 4L25 4L25 5L23 5L23 8L21 8L21 9L19 9L19 10L20 10L20 12L19 12L19 11L18 11L18 12L19 12L19 13L20 13L20 14L18 14L18 13L15 13L15 12L14 12L14 13L15 13L15 15L14 15L14 16L13 16L13 14L11 14L11 16L9 16L9 15L10 15L10 14L9 14L9 15L8 15L8 16L9 16L9 17L8 17L8 18L7 18L7 17L5 17L5 18L4 18L4 19L3 19L3 16L2 16L2 17L1 17L1 18L2 18L2 19L3 19L3 20L8 20L8 19L9 19L9 20L10 20L10 19L9 19L9 17L11 17L11 18L12 18L12 17L13 17L13 18L14 18L14 19L11 19L11 20L13 20L13 21L11 21L11 22L10 22L10 23L9 23L9 21L4 21L4 22L5 22L5 24L4 24L4 23L2 23L2 24L1 24L1 25L3 25L3 24L4 24L4 25L5 25L5 26L3 26L3 27L5 27L5 28L8 28L8 27L9 27L9 28L12 28L12 27L13 27L13 26L16 26L16 28L15 28L15 27L14 27L14 29L13 29L13 31L14 31L14 32L13 32L13 33L12 33L12 34L11 34L11 33L8 33L8 34L11 34L11 35L12 35L12 34L13 34L13 33L15 33L15 34L14 34L14 35L15 35L15 36L16 36L16 35L15 35L15 34L17 34L17 35L20 35L20 36L21 36L21 37L20 37L20 38L19 38L19 37L13 37L13 38L12 38L12 39L13 39L13 43L12 43L12 42L11 42L11 41L10 41L10 42L9 42L9 44L10 44L10 45L9 45L9 46L8 46L8 49L6 49L6 50L8 50L8 51L9 51L9 50L8 50L8 49L10 49L10 48L11 48L11 47L12 47L12 46L11 46L11 44L10 44L10 42L11 42L11 43L12 43L12 44L13 44L13 43L15 43L15 42L17 42L17 43L18 43L18 44L19 44L19 45L20 45L20 46L18 46L18 47L17 47L17 48L18 48L18 47L20 47L20 48L22 48L22 49L23 49L23 48L24 48L24 49L29 49L29 50L28 50L28 51L30 51L30 50L32 50L32 49L33 49L33 50L34 50L34 51L31 51L31 52L33 52L33 54L35 54L35 56L33 56L33 57L32 57L32 58L35 58L35 60L36 60L36 59L37 59L37 60L38 60L38 59L37 59L37 58L36 58L36 57L35 57L35 56L36 56L36 54L37 54L37 53L38 53L38 55L37 55L37 56L38 56L38 58L39 58L39 60L40 60L40 59L41 59L41 58L39 58L39 57L41 57L41 55L42 55L42 57L43 57L43 56L44 56L44 57L45 57L45 58L48 58L48 59L47 59L47 60L48 60L48 59L50 59L50 58L52 58L52 57L51 57L51 56L52 56L52 53L50 53L50 54L49 54L49 55L47 55L47 54L48 54L48 53L47 53L47 52L48 52L48 51L51 51L51 52L52 52L52 51L51 51L51 47L50 47L50 50L49 50L49 49L46 49L46 50L48 50L48 51L47 51L47 52L44 52L44 51L45 51L45 50L44 50L44 49L45 49L45 48L44 48L44 47L43 47L43 46L44 46L44 45L45 45L45 46L46 46L46 48L49 48L49 46L53 46L53 45L49 45L49 46L48 46L48 45L46 45L46 44L48 44L48 43L49 43L49 44L50 44L50 43L49 43L49 41L47 41L47 39L46 39L46 38L47 38L47 37L48 37L48 36L49 36L49 37L50 37L50 38L48 38L48 39L49 39L49 40L50 40L50 42L55 42L55 43L56 43L56 42L55 42L55 40L56 40L56 38L55 38L55 39L53 39L53 38L52 38L52 37L51 37L51 36L54 36L54 37L56 37L56 35L57 35L57 34L58 34L58 33L55 33L55 34L56 34L56 35L55 35L55 36L54 36L54 35L53 35L53 34L54 34L54 33L52 33L52 32L51 32L51 31L50 31L50 30L52 30L52 28L53 28L53 27L52 27L52 26L53 26L53 24L52 24L52 23L50 23L50 24L49 24L49 23L48 23L48 24L49 24L49 25L50 25L50 26L49 26L49 27L50 27L50 28L49 28L49 29L48 29L48 30L47 30L47 29L46 29L46 28L48 28L48 27L46 27L46 26L47 26L47 24L46 24L46 23L47 23L47 20L48 20L48 19L49 19L49 20L50 20L50 22L53 22L53 21L51 21L51 20L52 20L52 19L51 19L51 18L53 18L53 19L54 19L54 20L56 20L56 21L55 21L55 22L54 22L54 25L55 25L55 26L54 26L54 27L56 27L56 25L58 25L58 24L59 24L59 22L60 22L60 20L59 20L59 19L54 19L54 18L53 18L53 17L54 17L54 16L55 16L55 14L56 14L56 15L57 15L57 14L58 14L58 13L57 13L57 14L56 14L56 13L55 13L55 14L54 14L54 13L53 13L53 12L54 12L54 11L55 11L55 10L54 10L54 9L53 9L53 8L52 8L52 9L51 9L51 7L50 7L50 4L49 4L49 5L48 5L48 6L47 6L47 8L44 8L44 9L45 9L45 10L47 10L47 11L45 11L45 12L44 12L44 11L43 11L43 10L42 10L42 11L41 11L41 10L40 10L40 11L39 11L39 9L41 9L41 8L42 8L42 5L40 5L40 6L39 6L39 7L38 7L38 6L37 6L37 7L36 7L36 6L35 6L35 4L36 4L36 5L37 5L37 4L36 4L36 3L35 3L35 4L33 4L33 5L34 5L34 6L33 6L33 7L34 7L34 6L35 6L35 8L37 8L37 9L36 9L36 11L35 11L35 9L33 9L33 10L30 10L30 9L29 9L29 10L28 10L28 11L27 11L27 12L26 12L26 13L25 13L25 12L24 12L24 10L23 10L23 11L22 11L22 9L24 9L24 8L25 8L25 7L26 7L26 9L25 9L25 10L26 10L26 9L28 9L28 8L27 8L27 7L28 7L28 6L27 6L27 7L26 7L26 4L27 4L27 5L28 5L28 4L27 4L27 3L26 3L26 4L25 4L25 1L23 1L23 2L21 2L21 3L20 3L20 1ZM43 1L43 3L42 3L42 2L41 2L41 3L39 3L39 4L38 4L38 5L39 5L39 4L41 4L41 3L42 3L42 4L43 4L43 3L44 3L44 6L43 6L43 7L44 7L44 6L45 6L45 7L46 7L46 6L45 6L45 5L47 5L47 4L46 4L46 3L47 3L47 2L45 2L45 3L44 3L44 1ZM8 3L8 4L9 4L9 3ZM21 3L21 4L22 4L22 3ZM29 3L29 4L31 4L31 3ZM51 3L51 4L52 4L52 3ZM18 4L18 5L19 5L19 4ZM29 5L29 8L32 8L32 5ZM9 6L9 7L10 7L10 6ZM15 6L15 7L16 7L16 6ZM19 6L19 7L20 7L20 6ZM24 6L24 7L25 7L25 6ZM30 6L30 7L31 7L31 6ZM40 6L40 7L39 7L39 8L38 8L38 7L37 7L37 8L38 8L38 9L37 9L37 11L36 11L36 12L35 12L35 11L34 11L34 10L33 10L33 11L32 11L32 12L35 12L35 13L37 13L37 15L36 15L36 16L35 16L35 18L33 18L33 20L32 20L32 18L29 18L29 17L28 17L28 16L27 16L27 15L25 15L25 13L24 13L24 12L23 12L23 14L22 14L22 16L23 16L23 20L24 20L24 21L22 21L22 22L23 22L23 23L24 23L24 24L23 24L23 25L21 25L21 26L20 26L20 25L19 25L19 23L20 23L20 24L22 24L22 23L20 23L20 21L19 21L19 20L22 20L22 17L21 17L21 16L20 16L20 15L19 15L19 16L18 16L18 15L17 15L17 16L16 16L16 15L15 15L15 16L16 16L16 17L15 17L15 20L14 20L14 21L15 21L15 22L11 22L11 23L10 23L10 24L8 24L8 23L7 23L7 22L6 22L6 23L7 23L7 24L6 24L6 25L7 25L7 24L8 24L8 26L6 26L6 27L8 27L8 26L13 26L13 25L14 25L14 24L15 24L15 25L17 25L17 26L18 26L18 25L19 25L19 26L20 26L20 28L21 28L21 27L23 27L23 25L24 25L24 26L25 26L25 25L26 25L26 27L24 27L24 29L22 29L22 30L23 30L23 31L25 31L25 32L24 32L24 33L23 33L23 34L25 34L25 33L26 33L26 34L27 34L27 35L28 35L28 36L27 36L27 38L26 38L26 36L25 36L25 37L24 37L24 36L23 36L23 35L22 35L22 36L23 36L23 37L24 37L24 38L23 38L23 39L22 39L22 37L21 37L21 39L22 39L22 40L23 40L23 39L25 39L25 40L27 40L27 41L23 41L23 42L22 42L22 41L21 41L21 40L20 40L20 41L19 41L19 40L17 40L17 39L15 39L15 38L14 38L14 41L15 41L15 40L16 40L16 41L17 41L17 42L18 42L18 43L19 43L19 44L21 44L21 43L25 43L25 45L24 45L24 44L23 44L23 46L22 46L22 45L21 45L21 46L20 46L20 47L24 47L24 48L26 48L26 47L27 47L27 48L28 48L28 46L30 46L30 45L31 45L31 47L29 47L29 49L32 49L32 46L33 46L33 45L35 45L35 47L33 47L33 48L35 48L35 50L36 50L36 51L35 51L35 52L34 52L34 53L37 53L37 52L38 52L38 53L39 53L39 55L38 55L38 56L40 56L40 54L43 54L43 55L44 55L44 56L45 56L45 57L49 57L49 56L45 56L45 55L44 55L44 54L45 54L45 53L44 53L44 52L43 52L43 51L42 51L42 50L43 50L43 49L44 49L44 48L41 48L41 47L42 47L42 46L43 46L43 45L44 45L44 42L45 42L45 41L44 41L44 40L46 40L46 39L44 39L44 38L43 38L43 37L44 37L44 36L41 36L41 37L39 37L39 38L38 38L38 36L39 36L39 35L38 35L38 33L39 33L39 32L41 32L41 34L40 34L40 35L41 35L41 34L42 34L42 35L45 35L45 34L44 34L44 31L42 31L42 32L41 32L41 31L40 31L40 30L43 30L43 29L44 29L44 30L45 30L45 29L44 29L44 28L45 28L45 27L44 27L44 25L42 25L42 26L43 26L43 29L42 29L42 27L41 27L41 26L40 26L40 25L39 25L39 26L38 26L38 23L37 23L37 22L38 22L38 21L39 21L39 24L40 24L40 22L41 22L41 23L42 23L42 24L43 24L43 23L44 23L44 24L45 24L45 23L46 23L46 22L45 22L45 21L46 21L46 20L45 20L45 21L44 21L44 20L43 20L43 19L44 19L44 18L45 18L45 19L48 19L48 17L49 17L49 18L50 18L50 17L49 17L49 16L50 16L50 13L52 13L52 12L53 12L53 10L50 10L50 8L49 8L49 6L48 6L48 8L47 8L47 10L48 10L48 11L47 11L47 13L49 13L49 16L47 16L47 14L45 14L45 15L44 15L44 16L41 16L41 15L40 15L40 16L41 16L41 21L39 21L39 20L40 20L40 19L39 19L39 18L37 18L37 15L38 15L38 17L39 17L39 15L38 15L38 13L37 13L37 12L38 12L38 9L39 9L39 8L40 8L40 7L41 7L41 6ZM1 9L1 10L5 10L5 11L6 11L6 10L5 10L5 9ZM48 9L48 10L49 10L49 11L48 11L48 12L49 12L49 13L50 13L50 12L49 12L49 11L50 11L50 10L49 10L49 9ZM29 10L29 13L30 13L30 12L31 12L31 11L30 11L30 10ZM16 11L16 12L17 12L17 11ZM21 11L21 12L22 12L22 11ZM40 11L40 12L41 12L41 13L40 13L40 14L42 14L42 15L43 15L43 13L44 13L44 12L41 12L41 11ZM51 11L51 12L52 12L52 11ZM27 12L27 13L26 13L26 14L28 14L28 15L29 15L29 16L31 16L31 17L34 17L34 14L33 14L33 16L32 16L32 13L31 13L31 14L28 14L28 12ZM45 12L45 13L46 13L46 12ZM1 14L1 15L2 15L2 14ZM53 14L53 15L54 15L54 14ZM24 15L24 17L25 17L25 21L27 21L27 22L29 22L29 21L28 21L28 20L30 20L30 22L32 22L32 23L31 23L31 24L30 24L30 23L27 23L27 24L26 24L26 22L25 22L25 24L24 24L24 25L25 25L25 24L26 24L26 25L29 25L29 24L30 24L30 25L32 25L32 23L33 23L33 26L30 26L30 27L32 27L32 28L34 28L34 29L33 29L33 30L35 30L35 31L33 31L33 34L32 34L32 33L29 33L29 35L30 35L30 36L31 36L31 37L32 37L32 38L31 38L31 39L30 39L30 38L28 38L28 39L27 39L27 40L28 40L28 41L29 41L29 42L28 42L28 44L27 44L27 43L26 43L26 45L25 45L25 46L26 46L26 45L28 45L28 44L29 44L29 45L30 45L30 44L29 44L29 42L32 42L32 45L33 45L33 42L34 42L34 44L38 44L38 46L37 46L37 45L36 45L36 47L35 47L35 48L36 48L36 47L37 47L37 49L36 49L36 50L37 50L37 49L38 49L38 51L39 51L39 52L40 52L40 53L42 53L42 52L40 52L40 51L41 51L41 50L42 50L42 49L41 49L41 48L40 48L40 47L41 47L41 46L42 46L42 45L41 45L41 44L39 44L39 42L42 42L42 44L43 44L43 42L44 42L44 41L43 41L43 40L44 40L44 39L42 39L42 38L40 38L40 39L42 39L42 41L41 41L41 40L38 40L38 38L37 38L37 39L36 39L36 37L35 37L35 36L38 36L38 35L37 35L37 34L35 34L35 32L37 32L37 33L38 33L38 32L39 32L39 29L41 29L41 27L40 27L40 26L39 26L39 27L40 27L40 28L38 28L38 27L37 27L37 26L35 26L35 24L36 24L36 22L37 22L37 21L36 21L36 22L35 22L35 20L36 20L36 19L37 19L37 20L39 20L39 19L37 19L37 18L36 18L36 19L35 19L35 20L33 20L33 22L32 22L32 20L30 20L30 19L28 19L28 17L27 17L27 16L26 16L26 17L25 17L25 15ZM45 15L45 16L44 16L44 17L43 17L43 18L44 18L44 17L45 17L45 18L47 18L47 17L45 17L45 16L46 16L46 15ZM51 15L51 17L53 17L53 16L52 16L52 15ZM11 16L11 17L12 17L12 16ZM17 16L17 17L16 17L16 19L18 19L18 20L19 20L19 19L18 19L18 18L19 18L19 17L18 17L18 16ZM17 17L17 18L18 18L18 17ZM20 17L20 19L21 19L21 17ZM6 18L6 19L7 19L7 18ZM26 19L26 20L27 20L27 19ZM50 19L50 20L51 20L51 19ZM15 20L15 21L16 21L16 22L18 22L18 23L19 23L19 22L18 22L18 21L16 21L16 20ZM42 20L42 21L41 21L41 22L42 22L42 23L43 23L43 22L42 22L42 21L43 21L43 20ZM57 20L57 21L56 21L56 24L57 24L57 23L58 23L58 22L57 22L57 21L59 21L59 20ZM1 21L1 22L3 22L3 21ZM33 22L33 23L35 23L35 22ZM44 22L44 23L45 23L45 22ZM11 23L11 25L13 25L13 24L12 24L12 23ZM16 23L16 24L17 24L17 23ZM50 24L50 25L52 25L52 24ZM45 25L45 26L46 26L46 25ZM27 26L27 27L26 27L26 29L25 29L25 31L26 31L26 33L27 33L27 34L28 34L28 33L27 33L27 31L28 31L28 29L27 29L27 27L28 27L28 28L29 28L29 27L28 27L28 26ZM34 26L34 27L35 27L35 26ZM50 26L50 27L51 27L51 26ZM17 27L17 28L16 28L16 29L15 29L15 30L14 30L14 31L16 31L16 32L17 32L17 33L18 33L18 34L20 34L20 35L21 35L21 34L20 34L20 33L19 33L19 32L22 32L22 31L21 31L21 30L20 30L20 29L19 29L19 27ZM36 27L36 28L35 28L35 30L37 30L37 31L38 31L38 29L37 29L37 27ZM57 27L57 28L58 28L58 30L59 30L59 31L57 31L57 32L59 32L59 31L60 31L60 30L59 30L59 29L60 29L60 28L59 28L59 27ZM0 28L0 29L1 29L1 30L2 30L2 29L1 29L1 28ZM5 29L5 32L8 32L8 29ZM9 29L9 30L10 30L10 32L12 32L12 31L11 31L11 30L12 30L12 29L11 29L11 30L10 30L10 29ZM16 29L16 30L17 30L17 31L18 31L18 32L19 32L19 31L18 31L18 30L19 30L19 29L18 29L18 30L17 30L17 29ZM29 29L29 32L32 32L32 29ZM49 29L49 30L48 30L48 31L49 31L49 32L47 32L47 34L46 34L46 35L47 35L47 36L46 36L46 37L45 37L45 38L46 38L46 37L47 37L47 36L48 36L48 35L50 35L50 36L51 36L51 34L52 34L52 33L51 33L51 34L50 34L50 31L49 31L49 30L50 30L50 29ZM53 29L53 32L56 32L56 29ZM6 30L6 31L7 31L7 30ZM26 30L26 31L27 31L27 30ZM30 30L30 31L31 31L31 30ZM46 30L46 31L45 31L45 32L46 32L46 31L47 31L47 30ZM54 30L54 31L55 31L55 30ZM2 32L2 33L1 33L1 34L2 34L2 33L3 33L3 32ZM42 32L42 33L43 33L43 32ZM4 33L4 34L3 34L3 35L2 35L2 36L3 36L3 37L4 37L4 34L7 34L7 33ZM48 33L48 34L49 34L49 33ZM33 34L33 36L32 36L32 35L31 35L31 36L32 36L32 37L33 37L33 36L35 36L35 34ZM28 36L28 37L29 37L29 36ZM59 36L59 37L61 37L61 36ZM6 37L6 38L7 38L7 37ZM3 38L3 42L4 42L4 38ZM32 38L32 39L31 39L31 40L29 40L29 41L32 41L32 39L33 39L33 40L34 40L34 41L35 41L35 42L38 42L38 40L34 40L34 39L35 39L35 38L34 38L34 39L33 39L33 38ZM51 38L51 39L50 39L50 40L51 40L51 41L52 41L52 40L53 40L53 39L52 39L52 38ZM6 40L6 41L7 41L7 40ZM59 40L59 42L60 42L60 40ZM20 41L20 42L19 42L19 43L20 43L20 42L21 42L21 41ZM42 41L42 42L43 42L43 41ZM46 42L46 43L45 43L45 44L46 44L46 43L47 43L47 42ZM6 43L6 44L8 44L8 43ZM51 43L51 44L52 44L52 43ZM53 43L53 44L54 44L54 43ZM59 44L59 45L60 45L60 44ZM5 45L5 46L7 46L7 45ZM9 46L9 48L10 48L10 46ZM38 46L38 49L39 49L39 51L40 51L40 48L39 48L39 47L40 47L40 46ZM47 46L47 47L48 47L48 46ZM52 48L52 49L53 49L53 48ZM57 48L57 50L59 50L59 51L61 51L61 50L60 50L60 49L61 49L61 48L59 48L59 49L58 49L58 48ZM18 50L18 51L19 51L19 52L20 52L20 51L19 51L19 50ZM25 50L25 51L24 51L24 52L26 52L26 53L27 53L27 52L26 52L26 51L27 51L27 50ZM3 51L3 52L4 52L4 51ZM36 51L36 52L37 52L37 51ZM53 51L53 52L54 52L54 51ZM55 51L55 52L56 52L56 51ZM6 52L6 53L7 53L7 52ZM17 52L17 53L18 53L18 52ZM29 53L29 56L32 56L32 53ZM53 53L53 56L56 56L56 53ZM22 54L22 55L27 55L27 56L26 56L26 57L25 57L25 56L24 56L24 57L25 57L25 60L26 60L26 58L28 58L28 59L29 59L29 57L27 57L27 56L28 56L28 54ZM30 54L30 55L31 55L31 54ZM54 54L54 55L55 55L55 54ZM8 56L8 61L12 61L12 60L9 60L9 59L10 59L10 57L9 57L9 56ZM13 56L13 58L14 58L14 57L15 57L15 56ZM58 56L58 57L59 57L59 56ZM60 57L60 60L59 60L59 61L61 61L61 57ZM42 58L42 59L43 59L43 60L44 60L44 59L43 59L43 58ZM58 58L58 59L59 59L59 58ZM16 59L16 60L17 60L17 59ZM30 60L30 61L32 61L32 60ZM51 60L51 61L52 61L52 60ZM0 0L0 7L7 7L7 0ZM1 1L1 6L6 6L6 1ZM2 2L2 5L5 5L5 2ZM54 0L54 7L61 7L61 0ZM55 1L55 6L60 6L60 1ZM56 2L56 5L59 5L59 2ZM0 54L0 61L7 61L7 54ZM1 55L1 60L6 60L6 55ZM2 56L2 59L5 59L5 56Z" fill="#000000"/></g></g></svg>
